<svg width="122" height="24" xmlns="http://www.w3.org/2000/svg" xmlns:xlink="http://www.w3.org/1999/xlink" overflow="hidden"><defs><clipPath id="clip0"><path d="M579 348 701 348 701 372 579 372Z" fill-rule="evenodd" clip-rule="evenodd"/></clipPath><clipPath id="clip1"><path d="M618 349 700 349 700 371 618 371Z" fill-rule="evenodd" clip-rule="evenodd"/></clipPath><clipPath id="clip2"><path d="M618 349 700 349 700 371 618 371Z" fill-rule="evenodd" clip-rule="evenodd"/></clipPath><clipPath id="clip3"><path d="M580 349 700 349 700 371 580 371Z" fill-rule="evenodd" clip-rule="evenodd"/></clipPath><clipPath id="clip4"><path d="M580 349 618 349 618 371 580 371Z" fill-rule="evenodd" clip-rule="evenodd"/></clipPath><clipPath id="clip5"><path d="M580 349 618 349 618 371 580 371Z" fill-rule="evenodd" clip-rule="evenodd"/></clipPath><clipPath id="clip6"><path d="M580 349 701 349 701 371 580 371Z" fill-rule="evenodd" clip-rule="evenodd"/></clipPath></defs><g clip-path="url(#clip0)" transform="translate(-579 -348)"><g clip-path="url(#clip1)"><g clip-path="url(#clip2)"><g clip-path="url(#clip3)"><path d="M46.9805 9.03225C47.3615 9.02128 47.7375 9.0153 48.1075 9.0153 48.4885 9.0153 48.8605 9.04023 49.2246 9.0901 49.5896 9.13997 49.9487 9.22076 50.3017 9.33246 50.6548 9.44317 51.0049 9.60475 51.352 9.81519 51.4527 9.88202 51.6103 9.99871 51.8227 10.1653 52.0362 10.3318 52.2436 10.5433 52.4451 10.7986 52.5239 10.8983 52.6137 11.029 52.7144 11.1896 52.8151 11.3512 52.9099 11.5427 52.9996 11.7651 53.0894 11.9875 53.1682 12.2398 53.235 12.5231 53.3029 12.8063 53.3368 13.1205 53.3368 13.4646 53.3368 13.6202 53.3248 13.8137 53.3029 14.0481 53.2799 14.2805 53.2211 14.5368 53.1263 14.814 53.0306 15.0923 52.8969 15.3826 52.7224 15.6887 52.529 16.0192 52.2884 16.3196 52.0083 16.5804 51.4806 17.0911 50.8982 17.4382 50.2599 17.6217 49.6035 17.8075 48.9243 17.9001 48.2422 17.8969 47.536 17.8969 46.9755 17.8301 46.5606 17.6975 46.1977 17.5847 45.8438 17.4453 45.5014 17.2806L43.6851 17.9797 43.6851 4.83329 46.9805 4.83329ZM46.9805 15.0305C46.9805 15.208 47.0174 15.3915 47.0902 15.581 47.163 15.7705 47.2837 15.9391 47.4512 16.0897 47.6198 16.2393 47.8721 16.3141 48.2082 16.3141 48.6002 16.3141 48.9483 16.1645 49.2505 15.8643 49.452 15.6648 49.6255 15.3696 49.7721 14.9806 49.9178 14.5916 49.9906 14.075 49.9906 13.4307 49.9906 13.3649 49.9846 13.2232 49.9736 13.0058 49.9599 12.7729 49.9262 12.5417 49.8729 12.3146 49.7584 11.8642 49.5296 11.4509 49.2086 11.1148 48.8895 10.7817 48.4706 10.6161 47.9559 10.6161 47.7543 10.6232 47.5542 10.6533 47.3595 10.7059 47.1849 10.7567 47.0593 10.7986 46.9805 10.8315Z" fill="#FFFFFF" transform="matrix(1 0 -0 1.00263 580.315 349)"/><path d="M60.869 17.6795C60.8011 17.6795 60.6396 17.6825 60.3802 17.6885 60.1229 17.6935 59.8177 17.6885 59.4646 17.6715 59.1116 17.6546 58.7366 17.6296 58.3376 17.5967 57.9608 17.5668 57.5872 17.5054 57.2206 17.4132 56.8233 17.3227 56.4389 17.1826 56.0766 16.9963 55.705 16.8061 55.3828 16.5323 55.135 16.1964 54.875 15.8625 54.7069 15.4664 54.6473 15.0474 54.5915 14.6365 54.5576 14.2136 54.5466 13.7808L54.5466 9.03225 57.8419 9.03225 57.8419 14.3303C57.8474 14.5567 57.8697 14.7824 57.9087 15.0055 57.9317 15.1332 57.9656 15.2469 58.0105 15.3467 58.0324 15.4135 58.0713 15.4863 58.1282 15.5641 58.184 15.6419 58.2598 15.7167 58.3546 15.7885 58.5839 15.962 58.865 16.053 59.1525 16.0468 59.3998 16.0468 59.6133 16.0079 59.7928 15.9301L60.1788 15.7636 60.1788 9.03125 63.4751 9.03125 63.4751 17.6795Z" fill="#FFFFFF" transform="matrix(1 0 -0 1.00263 580.315 349)"/><path d="M65.0729 17.6795 68.3682 17.6795 68.3682 4.83329 65.0729 4.83329Z" fill="#FFFFFF" transform="matrix(1 0 -0 1.00263 580.315 349)"/><path d="M69.98 17.6795 73.2753 17.6795 73.2753 4.83329 69.98 4.83329Z" fill="#FFFFFF" transform="matrix(1 0 -0 1.00263 580.315 349)"/><path d="M80.9591 11.4988C80.9182 11.4481 80.8764 11.3981 80.8335 11.3492 80.7898 11.3006 80.7421 11.2559 80.6908 11.2155 80.6003 11.1465 80.5078 11.08 80.4136 11.016 80.2647 10.9158 80.1071 10.829 79.9428 10.7567 79.7432 10.6684 79.538 10.5933 79.3284 10.5323 79.0991 10.465 78.8613 10.4315 78.6223 10.4326 78.4208 10.4326 78.2493 10.4625 78.1096 10.5243 77.97 10.5852 77.8573 10.66 77.7735 10.7487 77.6947 10.8291 77.6345 10.9259 77.597 11.032 77.5631 11.1317 77.5471 11.2215 77.5471 11.2993 77.5471 11.3432 77.5521 11.396 77.5631 11.4569 77.5808 11.5333 77.6152 11.6048 77.6638 11.6663 77.7755 11.8209 77.9501 11.9436 78.1854 12.0324 78.4208 12.1211 78.6163 12.1929 78.7739 12.2488L79.5299 12.5979C79.5977 12.6318 79.7094 12.6846 79.867 12.7575 80.0236 12.8293 80.1912 12.927 80.3707 13.0487 80.5502 13.1704 80.7238 13.323 80.8923 13.5075 81.0609 13.69 81.1895 13.9144 81.2793 14.1817 81.3012 14.2376 81.3292 14.3343 81.3631 14.4729 81.397 14.6126 81.4129 14.7761 81.4129 14.9647 81.4129 15.0873 81.403 15.229 81.38 15.3895 81.3524 15.5677 81.3014 15.7414 81.2284 15.9062 81.1382 16.1095 81.0254 16.3022 80.8923 16.4807 80.7467 16.6801 80.5502 16.8696 80.3039 17.0472 79.835 17.4125 79.2888 17.6661 78.7071 17.7882 78.4597 17.8381 78.2383 17.869 78.0428 17.881 77.8774 17.8908 77.7118 17.8961 77.5461 17.8969 77.3666 17.8969 77.0614 17.881 76.6305 17.8471 75.9384 17.7861 75.2632 17.5999 74.6378 17.2975L74.6378 14.848C74.6826 14.9038 74.7574 14.9826 74.8642 15.0843 74.9709 15.1851 75.0995 15.2978 75.2511 15.4215 75.4027 15.5451 75.5763 15.6658 75.7728 15.7845 75.9683 15.9022 76.1847 16.0009 76.4201 16.0797 76.4759 16.0897 76.5767 16.1156 76.7223 16.1555 76.8679 16.1954 77.0255 16.2144 77.193 16.2144 77.4514 16.2144 77.6977 16.1396 77.9331 15.989 78.1685 15.8394 78.2862 15.6129 78.2862 15.3127 78.296 15.0627 78.162 14.829 77.9411 14.7113 77.7117 14.5777 77.3955 14.4221 76.9916 14.2436 76.7672 14.1538 76.5487 14.063 76.3353 13.9683 76.1215 13.8728 75.9139 13.7639 75.7139 13.6421 75.5964 13.568 75.4813 13.4901 75.3688 13.4087 75.2292 13.309 75.0916 13.1803 74.9569 13.0248 74.8131 12.853 74.6994 12.658 74.6208 12.4483 74.5266 12.1947 74.4809 11.9257 74.4862 11.6554 74.4862 11.5327 74.5061 11.3292 74.546 11.046 74.5839 10.7617 74.7106 10.4755 74.923 10.1852 75.0467 10.0187 75.2093 9.8521 75.4117 9.68454 75.6132 9.51797 75.8566 9.36737 76.1428 9.23372 76.428 9.10007 76.7592 8.99136 77.1342 8.90858 77.5102 8.8248 77.9331 8.78291 78.4039 8.78291 78.6951 8.78291 79.0452 8.81083 79.4551 8.86569 79.864 8.92154 80.3707 9.06018 80.9761 9.28259Z" fill="#FFFFFF" transform="matrix(1 0 -0 1.00263 580.315 349)"/><path d="M96.616 15.0614C96.616 15.0734 96.602 15.1262 96.5751 15.221L96.4733 15.5621C96.3915 15.8366 96.2877 16.1041 96.1632 16.362 96.0382 16.6116 95.87 16.8372 95.6665 17.0282 95.4886 17.1903 95.2837 17.32 95.0611 17.4112 94.8315 17.5031 94.5917 17.5674 94.3469 17.6027 94.0886 17.6426 93.8203 17.6665 93.5391 17.6775L91.5044 17.6775 90.0423 11.046 89.1177 14.9956C88.9721 15.5391 88.8404 15.962 88.7227 16.2622 88.605 16.5615 88.4455 16.8058 88.244 16.9943 87.9469 17.3024 87.5569 17.5046 87.1339 17.5698 86.719 17.6306 86.2981 17.6665 85.8722 17.6775L84.0231 17.6775 81.787 9.03026 85.1501 9.03026 86.4447 15.8124 87.3862 11.5636C87.5538 10.9632 87.7134 10.5074 87.865 10.1972 88.0166 9.88601 88.227 9.63567 88.4953 9.44616 88.8095 9.22475 89.1596 9.09708 89.5466 9.06317 89.924 9.03034 90.3029 9.01936 90.6816 9.03026L92.4808 9.03026 93.927 15.8124 95.5578 9.03026 98.2477 9.03026Z" fill="#FFFFFF" transform="matrix(1 0 -0 1.00263 580.315 349)"/><path d="M108.318 17.6775 104.182 17.6775C103.947 17.6775 103.711 17.6715 103.476 17.6606 103.108 17.6394 102.74 17.6032 102.375 17.5519 102.033 17.5046 101.695 17.4269 101.366 17.3195 101.039 17.2104 100.728 17.0588 100.441 16.8686 99.7172 16.3869 99.1709 15.6819 98.885 14.8609 98.7275 14.3999 98.6482 13.9158 98.6506 13.4287 98.6528 12.61 98.8672 11.806 99.273 11.0948 99.4186 10.8405 99.6171 10.5762 99.8694 10.3039 100.122 10.0316 100.436 9.78527 100.811 9.56286 101.233 9.32109 101.686 9.13599 102.156 9.0123 102.678 8.86868 103.274 8.79587 103.947 8.79587 104.137 8.79587 104.306 8.80186 104.451 8.81283 104.593 8.82329 104.734 8.84262 104.872 8.87068 105.006 8.8986 105.142 8.93251 105.275 8.97042 105.41 9.01031 105.566 9.05719 105.746 9.11304L106.52 9.46212 108.318 8.72905ZM105.023 12.2119C105.023 12.0673 105.018 11.9147 105.006 11.7531 104.995 11.5958 104.97 11.4399 104.931 11.2873 104.891 11.1377 104.829 10.9981 104.746 10.8704 104.657 10.7379 104.539 10.6268 104.402 10.5453 104.328 10.5162 104.255 10.486 104.182 10.4545 104.069 10.4126 103.949 10.3983 103.829 10.4126 103.538 10.4126 103.285 10.4954 103.073 10.662 102.804 10.8405 102.596 11.0739 102.451 11.3621 102.305 11.6514 102.198 11.9366 102.131 12.2199 102.07 12.4659 102.031 12.7169 102.014 12.9699 102.002 13.1863 101.997 13.312 101.997 13.3449 101.997 13.4347 102.008 13.6032 102.031 13.8536 102.053 14.1029 102.109 14.3672 102.198 14.6445 102.344 15.0674 102.56 15.4225 102.847 15.7117 103.132 16.0009 103.51 16.1446 103.981 16.1446 104.149 16.1446 104.32 16.1246 104.493 16.0857 104.667 16.0468 104.771 16.0219 104.804 16.0109L104.888 15.978C104.935 15.9611 104.981 15.9387 105.023 15.9112Z" fill="#FFFFFF" transform="matrix(1 0 -0 1.00263 580.315 349)"/><path d="M109.895 9.03425 113.057 9.03425C113.505 9.02328 113.947 9.02328 114.384 9.03425 114.788 9.04522 115.177 9.07414 115.553 9.11703 115.928 9.16191 116.293 9.2427 116.646 9.35939 116.999 9.47609 117.333 9.63367 117.647 9.83414 117.96 10.0336 118.257 10.2899 118.537 10.6001 118.627 10.6999 118.731 10.8335 118.849 11.0001 118.966 11.1666 119.076 11.3671 119.177 11.6005 119.276 11.8339 119.364 12.0972 119.437 12.3914 119.51 12.6866 119.547 13.0108 119.547 13.3669 119.547 13.7997 119.496 14.1747 119.395 14.4909 119.322 14.7307 119.237 14.9669 119.143 15.199 118.939 15.6411 118.661 16.0444 118.319 16.3909 117.983 16.73 117.607 17.0093 117.192 17.2317 116.778 17.4541 116.334 17.6207 115.864 17.7324 115.396 17.8431 114.917 17.8989 114.435 17.8989 114.222 17.8989 114.014 17.89 113.813 17.874 113.611 17.857 113.404 17.8371 113.19 17.8152L113.19 20.8971 109.895 20.8971ZM113.19 14.5039C113.19 14.6485 113.199 14.8031 113.216 14.9706 113.232 15.1372 113.263 15.2958 113.308 15.4464 113.353 15.596 113.418 15.7356 113.502 15.8633 113.592 15.9972 113.717 16.1041 113.864 16.1725 114.275 16.3613 114.755 16.3168 115.124 16.0558 115.394 15.8763 115.6 15.6469 115.747 15.3626 115.892 15.0794 115.998 14.7951 116.066 14.5118 116.133 14.2286 116.173 13.9782 116.184 13.7608 116.194 13.5444 116.2 13.4197 116.2 13.3858 116.2 13.3419 116.197 13.2412 116.192 13.0866 116.184 12.9047 116.164 12.7234 116.133 12.544 116.095 12.3226 116.039 12.1048 115.965 11.8927 115.885 11.6634 115.773 11.4473 115.629 11.2514 115.522 11.1009 115.392 10.9686 115.242 10.8594 115.121 10.7727 114.992 10.6998 114.855 10.642 114.742 10.5947 114.624 10.5638 114.502 10.5503 114.407 10.5401 114.312 10.5345 114.217 10.5333 113.957 10.5333 113.743 10.5642 113.568 10.6251 113.395 10.6869 113.269 10.7348 113.19 10.7677Z" fill="#FFFFFF" transform="matrix(1 0 -0 1.00263 580.315 349)"/><path d="M3.51177 15.962C3.66835 16.1585 3.93266 16.4348 4.30568 16.7879 4.6777 17.1419 5.12852 17.5359 5.65713 17.9678 6.18574 18.4006 6.79414 18.8235 7.48033 19.2344 8.16553 19.6483 8.91955 19.9924 9.74338 20.2677 9.93887 20.3076 10.2919 20.3954 10.8006 20.532 11.3093 20.6716 11.8588 20.7395 12.4463 20.7395 13.3479 20.7395 14.2106 20.4772 15.0335 19.9515 15.8563 19.4259 16.2682 18.638 16.2682 17.5858 16.2682 16.6522 15.8663 15.9521 15.0634 15.4843 14.2595 15.0175 13.1524 14.4719 11.7421 13.8486 10.9713 13.5436 10.2068 13.2227 9.44916 12.8861 8.70107 12.5531 7.97486 12.173 7.27487 11.7481 6.8641 11.4882 6.46163 11.2155 6.06805 10.9303 5.57933 10.5812 5.09859 10.1324 4.62883 9.58779 4.15807 9.04322 3.7661 8.37099 3.45292 7.57309 3.13875 6.77519 2.98316 5.85161 2.98316 4.80038 2.98316 4.37151 3.05098 3.66137 3.18862 2.66898 3.29019 1.98756 3.51063 1.32926 3.8399 0.724096 1.36642 3.4533-0.00244933 7.0056 1.42676e-07 10.6889 0 14.3393 1.31953 17.6835 3.51177 20.2797Z" fill="#FFFFFF" transform="matrix(1 0 -0 1.00263 580.315 349)"/><path d="M25.6456 0 25.6137 4.25182C25.4561 4.05833 25.3095 3.88279 25.1728 3.7282 25.0197 3.55875 24.8526 3.40259 24.6731 3.26142 24.3562 3.01984 24.0325 2.78703 23.7027 2.56326 23.1819 2.21399 22.6312 1.9116 22.057 1.65964 21.3599 1.35007 20.6428 1.0875 19.9106 0.873703 19.1091 0.638343 18.2775 0.520753 17.4421 0.524621 16.737 0.524621 16.1386 0.63134 15.6489 0.843781 15.1591 1.05822 14.7672 1.32053 14.4739 1.63071 14.1797 1.94189 13.9743 2.27203 13.8556 2.62111 13.7389 2.97019 13.68 3.28137 13.68 3.55266 13.68 3.70925 13.699 3.89376 13.7389 4.1062 13.7768 4.32064 13.8945 4.563 14.091 4.83429 14.4829 5.37886 15.0903 5.80574 15.9142 6.11692 16.737 6.4281 17.4222 6.67944 17.9708 6.87393L20.6168 8.09671C20.8512 8.2134 21.2431 8.39792 21.7927 8.65026 22.3413 8.90359 22.9287 9.2427 23.5561 9.66958 24.2227 10.1324 24.8342 10.6701 25.3783 11.2724 25.9657 11.9127 26.4155 12.6986 26.7297 13.6312 26.8085 13.8266 26.9063 14.1658 27.0239 14.6505 27.1416 15.1372 27.2005 15.7097 27.2005 16.369 27.2005 16.7978 27.1606 17.2925 27.0828 17.8551 26.9867 18.4774 26.809 19.0844 26.5542 19.6603 26.2939 20.2677 25.9278 20.9 25.4571 21.5583 28.3674 18.8325 30.1836 14.9716 30.1836 10.6899 30.1836 6.50091 28.4452 2.71486 25.6456-5.3151e-15" fill="#FFFFFF" transform="matrix(1 0 -0 1.00263 580.315 349)"/></g></g></g><g clip-path="url(#clip4)"><g clip-path="url(#clip5)"><g clip-path="url(#clip6)"><path d="M47.104 9.056C47.486 9.045 47.863 9.039 48.234 9.039 48.616 9.039 48.989 9.064 49.354 9.114 49.72 9.164 50.08 9.245 50.434 9.357 50.788 9.468 51.139 9.63 51.487 9.841 51.588 9.908 51.746 10.025 51.959 10.192 52.173 10.359 52.381 10.571 52.583 10.827 52.662 10.927 52.752 11.058 52.853 11.219 52.954 11.381 53.049 11.573 53.139 11.796 53.229 12.019 53.308 12.272 53.375 12.556 53.443 12.84 53.477 13.155 53.477 13.5 53.477 13.656 53.465 13.85 53.443 14.085 53.42 14.318 53.361 14.575 53.266 14.853 53.17 15.132 53.036 15.423 52.861 15.73 52.6671 16.0613 52.4259 16.3625 52.145 16.624 51.616 17.136 51.032 17.484 50.392 17.668 49.7339 17.8543 49.0529 17.9472 48.369 17.944 47.661 17.944 47.099 17.877 46.683 17.744 46.3192 17.6309 45.9643 17.4912 45.621 17.326L43.8 18.027 43.8 4.846 47.104 4.846ZM47.104 15.07C47.104 15.248 47.141 15.432 47.214 15.622 47.287 15.812 47.408 15.981 47.576 16.132 47.745 16.282 47.998 16.357 48.335 16.357 48.728 16.357 49.077 16.207 49.38 15.906 49.582 15.706 49.756 15.41 49.903 15.02 50.049 14.63 50.122 14.112 50.122 13.466 50.122 13.4 50.116 13.258 50.105 13.04 50.0913 12.8065 50.0575 12.5747 50.004 12.347 49.8892 11.8954 49.6598 11.481 49.338 11.144 49.018 10.81 48.598 10.644 48.082 10.644 47.8799 10.6511 47.6792 10.6813 47.484 10.734 47.309 10.785 47.183 10.827 47.104 10.86Z" fill="#1D212A" transform="matrix(1.00571 0 -0 1 580 349)"/><path d="M61.029 17.726C60.961 17.726 60.799 17.729 60.539 17.735 60.281 17.74 59.975 17.735 59.621 17.718 59.267 17.701 58.891 17.676 58.491 17.643 58.1132 17.613 57.7386 17.5514 57.371 17.459 56.9727 17.3682 56.5873 17.2278 56.224 17.041 55.8515 16.8503 55.5284 16.5758 55.28 16.239 55.0193 15.9042 54.8507 15.5071 54.791 15.087 54.735 14.675 54.701 14.251 54.69 13.817L54.69 9.056 57.994 9.056 57.994 14.368C57.9995 14.595 58.0219 14.8213 58.061 15.045 58.084 15.173 58.118 15.287 58.163 15.387 58.185 15.454 58.224 15.527 58.281 15.605 58.337 15.683 58.413 15.758 58.508 15.83 58.7379 16.004 59.0198 16.0952 59.308 16.089 59.556 16.089 59.77 16.05 59.95 15.972L60.337 15.805 60.337 9.055 63.642 9.055 63.642 17.726Z" fill="#1D212A" transform="matrix(1.00571 0 -0 1 580 349)"/><path d="M65.244 17.726 68.548 17.726 68.548 4.846 65.244 4.846Z" fill="#1D212A" transform="matrix(1.00571 0 -0 1 580 349)"/><path d="M70.164 17.726 73.468 17.726 73.468 4.846 70.164 4.846Z" fill="#1D212A" transform="matrix(1.00571 0 -0 1 580 349)"/><path d="M81.172 11.529C81.131 11.4782 81.089 11.4281 81.046 11.379 81.0022 11.3303 80.9544 11.2855 80.903 11.245 80.8122 11.1758 80.7195 11.1091 80.625 11.045 80.4757 10.9445 80.3177 10.8575 80.153 10.785 79.9529 10.6964 79.7471 10.6212 79.537 10.56 79.3071 10.4925 79.0686 10.4589 78.829 10.46 78.627 10.46 78.455 10.49 78.315 10.552 78.175 10.613 78.062 10.688 77.978 10.777 77.899 10.8576 77.8386 10.9546 77.801 11.061 77.767 11.161 77.751 11.251 77.751 11.329 77.751 11.373 77.756 11.426 77.767 11.487 77.7848 11.5636 77.8193 11.6353 77.868 11.697 77.98 11.852 78.155 11.975 78.391 12.064 78.627 12.153 78.823 12.225 78.981 12.281L79.739 12.631C79.807 12.665 79.919 12.718 80.077 12.791 80.234 12.863 80.402 12.961 80.582 13.083 80.762 13.205 80.936 13.358 81.105 13.543 81.274 13.726 81.403 13.951 81.493 14.219 81.515 14.275 81.543 14.372 81.577 14.511 81.611 14.651 81.627 14.815 81.627 15.004 81.627 15.127 81.617 15.269 81.594 15.43 81.5663 15.6086 81.5152 15.7828 81.442 15.948 81.3515 16.1519 81.2384 16.3451 81.105 16.524 80.959 16.724 80.762 16.914 80.515 17.092 80.0449 17.4583 79.4973 17.7125 78.914 17.835 78.666 17.885 78.444 17.916 78.248 17.928 78.0822 17.9378 77.9161 17.9432 77.75 17.944 77.57 17.944 77.264 17.928 76.832 17.894 76.1381 17.8329 75.4611 17.6462 74.834 17.343L74.834 14.887C74.879 14.943 74.954 15.022 75.061 15.124 75.168 15.225 75.297 15.338 75.449 15.462 75.601 15.586 75.775 15.707 75.972 15.826 76.168 15.944 76.385 16.043 76.621 16.122 76.677 16.132 76.778 16.158 76.924 16.198 77.07 16.238 77.228 16.257 77.396 16.257 77.655 16.257 77.902 16.182 78.138 16.031 78.374 15.881 78.492 15.654 78.492 15.353 78.5019 15.1023 78.3675 14.868 78.146 14.75 77.916 14.616 77.599 14.46 77.194 14.281 76.969 14.191 76.75 14.1 76.536 14.005 76.3216 13.9093 76.1135 13.8001 75.913 13.678 75.7952 13.6037 75.6798 13.5256 75.567 13.444 75.427 13.344 75.289 13.215 75.154 13.059 75.0098 12.8868 74.8958 12.6913 74.817 12.481 74.7225 12.2268 74.6767 11.9571 74.682 11.686 74.682 11.563 74.702 11.359 74.742 11.075 74.78 10.79 74.907 10.503 75.12 10.212 75.244 10.045 75.407 9.878 75.61 9.71 75.812 9.543 76.056 9.392 76.343 9.258 76.629 9.124 76.961 9.015 77.337 8.932 77.714 8.848 78.138 8.806 78.61 8.806 78.902 8.806 79.253 8.834 79.664 8.889 80.074 8.945 80.582 9.084 81.189 9.307Z" fill="#1D212A" transform="matrix(1.00571 0 -0 1 580 349)"/><path d="M96.87 15.101C96.87 15.113 96.856 15.166 96.829 15.261L96.727 15.603C96.6449 15.8782 96.5409 16.1464 96.416 16.405 96.2907 16.6553 96.1221 16.8815 95.918 17.073 95.7397 17.2355 95.5342 17.3655 95.311 17.457 95.0808 17.5491 94.8404 17.6136 94.595 17.649 94.336 17.689 94.067 17.713 93.785 17.724L91.745 17.724 90.279 11.075 89.352 15.035C89.206 15.58 89.074 16.004 88.956 16.305 88.838 16.605 88.678 16.85 88.476 17.039 88.1781 17.3479 87.7871 17.5506 87.363 17.616 86.947 17.677 86.525 17.713 86.098 17.724L84.244 17.724 82.002 9.054 85.374 9.054 86.672 15.854 87.616 11.594C87.784 10.992 87.944 10.535 88.096 10.224 88.248 9.912 88.459 9.661 88.728 9.471 89.043 9.249 89.394 9.121 89.782 9.087 90.1604 9.05408 90.5403 9.04307 90.92 9.054L92.724 9.054 94.174 15.854 95.809 9.054 98.506 9.054Z" fill="#1D212A" transform="matrix(1.00571 0 -0 1 580 349)"/><path d="M108.603 17.724 104.456 17.724C104.22 17.724 103.984 17.718 103.748 17.707 103.379 17.6858 103.01 17.6495 102.644 17.598 102.301 17.5506 101.962 17.4727 101.633 17.365 101.305 17.2556 100.993 17.1037 100.705 16.913 99.9794 16.43 99.4316 15.7231 99.145 14.9 98.9871 14.4378 98.9076 13.9524 98.91 13.464 98.9122 12.6432 99.1272 11.837 99.534 11.124 99.68 10.869 99.879 10.604 100.132 10.331 100.385 10.058 100.7 9.811 101.076 9.588 101.499 9.3456 101.953 9.16001 102.425 9.036 102.948 8.892 103.546 8.819 104.22 8.819 104.411 8.819 104.58 8.825 104.726 8.836 104.868 8.84649 105.009 8.86587 105.148 8.894 105.282 8.922 105.418 8.956 105.552 8.994 105.687 9.034 105.844 9.081 106.024 9.137L106.8 9.487 108.603 8.752ZM105.299 12.244C105.299 12.099 105.294 11.946 105.282 11.784 105.271 11.6263 105.246 11.47 105.207 11.317 105.167 11.167 105.105 11.027 105.021 10.899 104.932 10.7661 104.814 10.6547 104.676 10.573 104.602 10.5439 104.529 10.5136 104.456 10.482 104.343 10.44 104.222 10.4256 104.102 10.44 103.81 10.44 103.557 10.523 103.344 10.69 103.074 10.869 102.866 11.103 102.72 11.392 102.574 11.682 102.467 11.968 102.4 12.252 102.338 12.4987 102.299 12.7503 102.282 13.004 102.27 13.221 102.265 13.347 102.265 13.38 102.265 13.47 102.276 13.639 102.299 13.89 102.321 14.14 102.377 14.405 102.467 14.683 102.613 15.107 102.83 15.463 103.117 15.753 103.403 16.043 103.782 16.187 104.254 16.187 104.423 16.187 104.594 16.167 104.768 16.128 104.942 16.089 105.046 16.064 105.08 16.053L105.164 16.02C105.211 16.0031 105.257 15.9806 105.299 15.953Z" fill="#1D212A" transform="matrix(1.00571 0 -0 1 580 349)"/><path d="M110.184 9.058 113.354 9.058C113.803 9.047 114.247 9.047 114.685 9.058 115.09 9.069 115.48 9.098 115.857 9.141 116.233 9.186 116.599 9.267 116.953 9.384 117.307 9.501 117.641 9.659 117.956 9.86 118.27 10.06 118.568 10.317 118.849 10.628 118.939 10.728 119.043 10.862 119.161 11.029 119.279 11.196 119.389 11.397 119.49 11.631 119.59 11.865 119.678 12.129 119.751 12.424 119.824 12.72 119.861 13.045 119.861 13.402 119.861 13.836 119.81 14.212 119.709 14.529 119.636 14.7694 119.551 15.0063 119.456 15.239 119.252 15.6822 118.973 16.0866 118.63 16.434 118.293 16.774 117.916 17.054 117.5 17.277 117.085 17.5 116.64 17.667 116.169 17.779 115.699 17.89 115.219 17.946 114.736 17.946 114.522 17.946 114.314 17.937 114.112 17.921 113.91 17.904 113.702 17.884 113.488 17.862L113.488 20.952 110.184 20.952ZM113.488 14.542C113.488 14.687 113.497 14.842 113.514 15.01 113.53 15.177 113.561 15.336 113.606 15.487 113.651 15.637 113.716 15.777 113.8 15.905 113.891 16.0393 114.016 16.1464 114.163 16.215 114.575 16.4043 115.057 16.3597 115.427 16.098 115.697 15.918 115.904 15.688 116.051 15.403 116.197 15.119 116.303 14.834 116.371 14.55 116.438 14.266 116.478 14.015 116.489 13.797 116.5 13.58 116.506 13.455 116.506 13.421 116.506 13.377 116.503 13.276 116.497 13.121 116.489 12.9386 116.469 12.7569 116.438 12.577 116.4 12.355 116.344 12.1366 116.27 11.924 116.19 11.6941 116.077 11.4774 115.933 11.281 115.826 11.1301 115.695 10.9974 115.545 10.888 115.424 10.801 115.294 10.7279 115.157 10.67 115.044 10.6226 114.925 10.5916 114.803 10.578 114.708 10.5678 114.613 10.5622 114.517 10.561 114.257 10.561 114.042 10.592 113.867 10.653 113.693 10.715 113.567 10.763 113.488 10.796Z" fill="#1D212A" transform="matrix(1.00571 0 -0 1 580 349)"/><path d="M3.521 16.004C3.678 16.201 3.943 16.478 4.317 16.832 4.69 17.187 5.142 17.582 5.672 18.015 6.202 18.449 6.812 18.873 7.5 19.285 8.187 19.7 8.943 20.045 9.769 20.321 9.965 20.361 10.319 20.449 10.829 20.586 11.339 20.726 11.89 20.794 12.479 20.794 13.383 20.794 14.248 20.531 15.073 20.004 15.898 19.477 16.311 18.687 16.311 17.632 16.311 16.696 15.908 15.994 15.103 15.525 14.297 15.057 13.187 14.51 11.773 13.885 11.0001 13.5792 10.2336 13.2575 9.474 12.92 8.72395 12.5861 7.99583 12.205 7.294 11.779 6.88215 11.5184 6.47862 11.245 6.084 10.959 5.594 10.609 5.112 10.159 4.641 9.613 4.169 9.067 3.776 8.393 3.462 7.593 3.147 6.793 2.991 5.867 2.991 4.813 2.991 4.383 3.059 3.671 3.197 2.676 3.29884 1.99279 3.51986 1.33276 3.85 0.726 1.37001 3.46238-0.00245577 7.02402 1.43051e-07 10.717 0 14.377 1.323 17.73 3.521 20.333Z" fill="#F9C73D" transform="matrix(1.00571 0 -0 1 580 349)"/><path d="M25.713 0 25.681 4.263C25.523 4.069 25.376 3.893 25.239 3.738 25.0855 3.56811 24.9179 3.41154 24.738 3.27 24.4202 3.02778 24.0957 2.79436 23.765 2.57 23.2429 2.21981 22.6907 1.91663 22.115 1.664 21.4161 1.35362 20.6971 1.09036 19.963 0.876 19.1593 0.640021 18.3256 0.522122 17.488 0.526 16.781 0.526 16.181 0.633 15.69 0.846 15.199 1.061 14.806 1.324 14.512 1.635 14.217 1.947 14.011 2.278 13.892 2.628 13.775 2.978 13.716 3.29 13.716 3.562 13.716 3.719 13.735 3.904 13.775 4.117 13.813 4.332 13.931 4.575 14.128 4.847 14.521 5.393 15.13 5.821 15.956 6.133 16.781 6.445 17.468 6.697 18.018 6.892L20.671 8.118C20.906 8.235 21.299 8.42 21.85 8.673 22.4 8.927 22.989 9.267 23.618 9.695 24.2864 10.159 24.8995 10.6982 25.445 11.302 26.034 11.944 26.485 12.732 26.8 13.667 26.879 13.863 26.977 14.203 27.095 14.689 27.213 15.177 27.272 15.751 27.272 16.412 27.272 16.842 27.232 17.338 27.154 17.902 27.0577 18.526 26.8795 19.1346 26.624 19.712 26.363 20.321 25.996 20.955 25.524 21.615 28.442 18.882 30.263 15.011 30.263 10.718 30.263 6.518 28.52 2.722 25.713-5.32907e-15" fill="#F9C73D" transform="matrix(1.00571 0 -0 1 580 349)"/></g></g></g></g></svg>